<svg width="48" height="48" viewBox="0 0 48 48" fill="none" xmlns="http://www.w3.org/2000/svg"><path d="M24.0182 41.6551C33.6385 41.6551 41.4373 33.8563 41.4373 24.236C41.4373 14.6157 33.6385 6.81689 24.0182 6.81689C14.3979 6.81689 6.59912 14.6157 6.59912 24.236C6.59912 33.8563 14.3979 41.6551 24.0182 41.6551Z" fill="#C95CA3"></path><path fill-rule="evenodd" clip-rule="evenodd" d="M36.1117 20.0649C36.1117 20.0595 36.1117 20.054 36.1117 20.0485C36.1117 16.6481 33.3552 13.8916 29.9548 13.8916C27.1425 13.8916 24.7707 15.7771 24.0344 18.3528C23.298 15.7771 20.9261 13.8916 18.1139 13.8916C14.7136 13.8916 11.957 16.6481 11.957 20.0485C11.957 20.054 11.957 20.0595 11.9571 20.0649H11.957L11.9571 20.0663C11.9573 20.1664 11.96 20.266 11.965 20.3649C12.3873 32.7572 24.0224 37.6223 24.0224 37.6223C24.0224 37.6223 35.6809 32.7572 36.1037 20.3652C36.1087 20.2662 36.1114 20.1665 36.1117 20.0663C36.1117 20.0658 36.1117 20.0654 36.1117 20.0649H36.1117Z" fill="white"></path><path fill-rule="evenodd" clip-rule="evenodd" d="M22.848 26.2636C23.3871 23.8428 22.0275 20.4325 22.0275 20.4325L22.028 20.4316L21.1586 20.6561V25.2845H20.2742L20.128 20.9276H19.2502V20.9281V20.9285L19.104 25.285H18.2195V20.6565L17.3502 20.4321V20.4325C17.3502 20.4325 15.9906 23.8428 16.5297 26.2636C16.7009 27.0325 17.1404 27.7134 17.7724 28.1836C18.1706 28.4801 18.676 28.7721 19.1204 28.7721L18.624 40.8032L19.0897 40.9508C19.1075 40.9561 19.9169 41.1721 19.9346 41.1761L20.6662 41.3325L20.2573 28.7721C20.7017 28.7721 21.2071 28.4801 21.6053 28.1836C22.2373 27.7134 22.6769 27.0325 22.848 26.2636Z" fill="#863670"></path><path fill-rule="evenodd" clip-rule="evenodd" d="M29.0737 28.8016C30.7554 28.4424 32.0395 26.5181 32.0395 24.1982C32.0395 21.6226 30.4567 19.5347 28.5043 19.5347C26.5519 19.5347 24.9692 21.6226 24.9692 24.1982C24.9692 26.518 26.2532 28.4423 27.9348 28.8016L27.4679 41.3142L27.9163 41.2142L28.3501 41.1138L28.8839 40.964L29.451 40.7916L29.0737 28.8016Z" fill="#863670"></path></svg>