<svg width="48" height="48" viewBox="0 0 48 48" fill="none" xmlns="http://www.w3.org/2000/svg" data-v-478eddff=""><path d="M23.9997 41.6048C33.62 41.6048 41.4188 33.806 41.4188 24.1857C41.4188 14.5654 33.62 6.7666 23.9997 6.7666C14.3794 6.7666 6.58057 14.5654 6.58057 24.1857C6.58057 33.806 14.3794 41.6048 23.9997 41.6048Z" fill="#64BCC2" data-v-478eddff=""></path><path d="M12.2397 19.5287C11.8251 21.7523 13.6415 22.2967 12.3948 28.0621C12.2415 28.7701 12.8126 29.7603 13.6339 29.5905C14.3033 29.4518 14.8402 29.4207 16.6308 26.0625C16.6788 25.9727 16.7628 25.9456 16.8308 26.0003C18.0593 26.9874 28.6891 35.1087 35.4077 26.1678C35.4628 26.0945 36.7757 24.4496 35.8491 23.1883C34.7384 21.6758 28.6291 14.8887 16.8726 22.131C16.8064 22.1718 16.7304 22.1421 16.6864 22.0585C16.3668 21.4492 15.2548 19.1221 13.0415 18.9754C12.8073 18.9598 12.3015 19.195 12.2393 19.5283L12.2397 19.5287Z" fill="white" data-v-478eddff=""></path><path d="M24.4878 28.2812C24.4878 28.2812 22.9629 31.9844 24.4878 32.2488C24.4878 32.2488 27.3385 32.3652 28.4642 30.2652" fill="white" data-v-478eddff=""></path><path d="M24.2112 20.0055C24.2112 20.0055 23.5508 14.1183 25.7868 15.3935C25.7868 15.3935 30.465 17.6468 30.5565 21.8263" fill="white" data-v-478eddff=""></path><path d="M27.3378 23.0586C27.3378 23.0586 21.7098 24.727 27.3378 27.4679" stroke="#3D7777" stroke-width="0.533333" stroke-miterlimit="10" stroke-linecap="round" data-v-478eddff=""></path><path d="M16.6854 22.0577C16.3658 21.4484 15.2538 19.1213 13.0405 18.9746C12.8063 18.9591 12.3005 19.1942 12.2383 19.5275C11.8236 21.751 13.64 22.2955 12.3934 28.0608C12.24 28.7688 12.8111 29.759 13.6325 29.5893C14.3018 29.4506 14.8387 29.4195 16.6294 26.0613" fill="#3D7777" data-v-478eddff=""></path><path d="M16.5427 21.7839C16.5427 21.7839 17.8836 24.003 16.396 26.4937L16.5427 21.7839Z" fill="#3D7777" data-v-478eddff=""></path></svg>