<svg width="48" height="48" viewBox="0 0 48 48" fill="none" xmlns="http://www.w3.org/2000/svg" data-v-478eddff=""><path d="M24.0002 41.6048C33.6205 41.6048 41.4193 33.806 41.4193 24.1857C41.4193 14.5654 33.6205 6.7666 24.0002 6.7666C14.3799 6.7666 6.58105 14.5654 6.58105 24.1857C6.58105 33.806 14.3799 41.6048 24.0002 41.6048Z" fill="#62C08E" data-v-478eddff=""></path><path d="M21.5875 23.3039C21.5875 23.3039 20.2279 26.7141 20.767 29.135C20.9382 29.9039 21.3777 30.5848 22.0097 31.055C22.4079 31.3515 22.9133 31.6435 23.3577 31.6435L22.9573 41.6044H24.7093L24.4088 31.5768L24.0164 23.9444L23.4875 23.7995L23.3413 28.1564H22.4568V23.5279L21.5875 23.3035V23.3039Z" fill="#386E4F" data-v-478eddff=""></path><path d="M26.3671 24.5679C26.3671 24.5679 27.0368 26.8422 27.0346 28.6933C27.0333 29.8631 26.3884 30.9497 25.3342 31.4559C25.0995 31.5684 24.8586 31.6435 24.6333 31.6435L25.0337 41.6044H23.2817L23.5822 31.5768L23.9826 23.9351L24.4911 24.0746L24.6502 28.1559H25.5346V24.3853L26.3675 24.5675L26.3671 24.5679Z" fill="#386E4F" data-v-478eddff=""></path><path d="M12.4517 20.2742L26.9677 24.0284C26.9677 24.0284 31.1223 25.2297 32.0734 23.1275C32.0734 23.1275 33.9254 20.4244 31.8734 17.4213C31.8734 17.4213 30.5721 15.8195 26.7677 16.8706C26.7677 16.8706 25.4663 21.0751 21.1614 18.1222L12.4517 20.2746V20.2742Z" fill="white" data-v-478eddff=""></path><path d="M33.1242 19.8738C33.1242 19.8738 35.2264 19.924 35.2264 22.8271V27.2822C35.2264 27.2822 36.7282 27.6324 36.6615 29.0173C36.6615 29.0173 35.7606 29.1009 35.2099 28.5502V29.0218C35.2099 29.0218 36.1108 29.9182 36.0277 31.0027C36.0277 31.0027 35.4437 31.0862 35.0935 30.6022C35.0935 30.6022 35.4104 32.1538 34.693 33.1218C34.693 33.1218 33.9255 32.7044 34.2593 30.6356C34.2593 30.6356 34.0926 31.036 33.0579 31.1529C33.0579 31.1529 32.941 29.9182 34.2259 29.0671C34.2259 29.0671 32.9579 29.4009 32.641 29.084C32.641 29.084 32.5744 28.1831 34.1259 27.5991V22.6436C34.1259 22.6436 34.109 21.4591 33.125 21.0418V19.8738H33.1242Z" fill="#386E4F" data-v-478eddff=""></path></svg>