<svg id="a9ce3f31-cf73-48a3-b88a-9cc8a7474309" data-name="Layer 1" xmlns="http://www.w3.org/2000/svg" viewBox="0 0 169.68 222.04"><defs><style>.f9fee5a5-ae91-4168-804f-99521053cf1f{fill:#006330;}.ae691a05-bd00-4164-baf7-6e61104d23ac{fill:#eeb310;}</style></defs><title>ccof-organic</title><path class="f9fee5a5-ae91-4168-804f-99521053cf1f" d="M140.36,9v4.68h7.48c9.74,0,12.56,3.14,12.56,14v71.2h4.67V27.66C165.07,14.2,160.24,9,147.84,9Z"/><path class="f9fee5a5-ae91-4168-804f-99521053cf1f" d="M162.74,111.14c-.79,0-6.88-15.38-6.14-16.12s4.24,3.81,4.24,3.81h4.21s3.5-4.55,4.2-3.85S163.53,111.14,162.74,111.14Zm-2.52,5.37V192.9c0,9.74-3.15,12.56-14,12.56H140v4.67h6.26c13.47,0,18.71-4.83,18.71-17.23V116.51Z"/><path class="f9fee5a5-ae91-4168-804f-99521053cf1f" d="M131,207.83c0-.79,15.38-6.88,16.12-6.14s-3.86,4.21-3.86,4.21v4.2s4.56,3.51,3.86,4.21S131,208.59,131,207.83ZM4.21,120.31v71.22C4.21,205,9,210.24,21.44,210.24h14.4v-4.68H21.44c-9.63,0-12.56-3.27-12.56-14V120.31Z"/><path class="f9fee5a5-ae91-4168-804f-99521053cf1f" d="M6.54,108.05c.79,0,6.88,15.38,6.13,16.12s-4.2-3.86-4.2-3.86H4.26s-3.5,4.56-4.2,3.86S5.75,108.05,6.54,108.05Zm16.55-99c-13.46,0-18.7,4.84-18.7,17.24v76.39H9.06V26.29c0-9.63,3.28-12.56,14-12.56h6.26V9.05Z"/><path class="f9fee5a5-ae91-4168-804f-99521053cf1f" d="M35.84,11.39c0,.79-15.37,6.88-16.12,6.13s3.86-4.2,3.86-4.2V9.11S19,5.61,19.72,4.91,35.84,10.6,35.84,11.39Z"/><path class="ae691a05-bd00-4164-baf7-6e61104d23ac" d="M57.64,42.42c4.14.82,7.36,3.5,10.51,6-.7-4.56-3.15-8.07-4.55-12.27-.7-1-1.75-1.76-2.46-2.8,3.86,1,6,3.85,8.77,6.3.35,0,.7,0,.7-.34-.35-4.56-.35-9.12-2.81-13a3.55,3.55,0,0,1,2.46,1.4,43.77,43.77,0,0,0,4.55,5.95c1,1.06,1,2.81,1.76,4.21.7,1.05.7-.35,1-.35,0-4.2,2.45-8.06,2.8-12.27,2.45,3.86,1.75,8.76,3.85,13C86,34.39,86.33,30.54,87,26.34c1.4,1.75,1,4.55,2.45,6.3,2.1-2.45,4.56-4.9,6.31-7.71,1,.71-.35,1.75-.35,2.46,0,4.91,1.4,9.81-.7,14.37,0,.35.35.7.7.35,3.51-3.51,4.91-8.42,6.66-13a3.08,3.08,0,0,1,1.4-1.75c.7,1.4-.35,2.45-.35,3.5.7,2.1-.7,4.56,1,6.66,2.11-1.75,4.91-3.16,6.66-5.61-.7,3.16-1.75,6-1.75,9.11,0,.36.35.36.7.36,2.45-1.41,4.56-2.46,6.31-4.56-1.05,3.5-2.81,7-4.21,10.52,4.21.7,9.47-1.06,11.92,3.5a1.23,1.23,0,0,1-.35.7c-2.1-1-4.56-.35-6.31.7,1,.7,2.1,0,3.15.35a24.46,24.46,0,0,0,7,2.81c-1.4.34-3.15.34-4.55,1.05-1,.35-3.16-.35-3.86,1.4a38,38,0,0,1,10.52,3.85,1.28,1.28,0,0,1,.35,1c-2.81-1-5.61.35-8.77,0-.35-.35-1.75.35-1.4.35,2.11,2.11,4.91,3.51,7,6,1,1.76,3.5,2.81,3.85,4.21.35,1-2.11-.7-2.45.35,0,.7,1.05.7,1.4,1.4-3.15,0-6.66-2.8-9.82-1,3.86,1.75,4.91,6,7.71,8.76-1.4.7-2.1-.35-3.15-.7-.35,0-.35.35-.35.7a8.23,8.23,0,0,0,3.86,4.56c-1.76.7-3.86-1.4-4.91-.35-1.76,1.75,1,3.85,1,6.31-2.1-1.41-3.86-3.51-6-4.21s-3.5-2.8-5.61-2.45a13.48,13.48,0,0,1,.7,9.81c-.35,2.1,1.06,3.85,1.76,5.61-.35,0-.7,0-.7-.35-.71.7-.36,1.4-.36,2.1-1.4-1.75-2.45-4.2-4.2-6-1,2.1,0,4.56-.35,6.66-1.75-3.85-3.86-7.71-7.71-9.81,0,0-.7.35-.35.7a7.38,7.38,0,0,1,2.1,6.31c-.35,3.15-.35,6.66-1.75,9.81a12.84,12.84,0,0,0-3.16-7c-1.75,1.75,0,3.86-1,5.61-.7-2.81-2.45-4.91-4.55-7-1.41,3.5-2.81,6.66-2.81,10.51,0,.35-.7.35-.7.35-1-4.2-1.75-8.76-4.55-12.26-2.11,2.1-1.05,4.9-.7,7.36-2.46-1.41-2.46-4.21-3.86-6.31-2.1,1.75-2.8,4.55-5.26,6,.35-1.06.35-2.11.7-2.81,0-1.75,1.06-5.25-1-5.25-3.15,0-5.61,3.85-9.11,5.25,1.4-2.45,3.86-4.2,4.56-6.65.35-.71,1-2.11.35-1.76a72.51,72.51,0,0,0-11.22,4.21c1.4-2.81,5.61-4.91,3.86-8.41-4.21,0-7,3.15-9.47,6,.35-4.56,2.81-8.42,4.56-12.62-2.8-.35-5.26,1-8.06,1.75-1,.35-2.45.7-3.5,0,1-.7,2.8-1.4,3.5-2.8,0,0-.35-.7-.7-.36-.7,1.06-1.75.71-2.8.71,3.15-1.75,4.9-4.56,7-7.71,0-.35,0-.71-.35-.71-2.8.36-3.85,2.8-6,4.21,0-3.15,2.11-5.61,3.51-8.06.7-1.4-1-.7-1.75-.7-2.1-1-4.56.35-7,.7,3.5-3.15,7-6.31,11.56-7.71A1.72,1.72,0,0,0,53.63,65C48,64.26,47,58.3,43.82,54.8c2.81.35,4.91,3.15,8.06,2.8-1.4-1.4-2.1-3.16-3.85-4.56,2.1-1,3.5,1.06,5.6.35-2.1-1.4-4.9-1.4-7.35-2.1,2.45-.7,5.25-.7,7.71-1.76,2.1-.69,4.2.71,6.3.71.35,0,.35-.35.35-.71a33.51,33.51,0,0,0-8.06-7.7,23.32,23.32,0,0,1,5.06.59Zm16.82,6.31c1.13-.57.35-1.4,0-2.11-2.45-3.5-4.2-7-8.06-9.11-.35,0-.35.7-.35,1.05,1,3.86,2.46,7.36,6,9.82a3.09,3.09,0,0,0,2.41.35Zm3.16-2.81c0-5-1.41-10.16-5.26-13.66-.35,0-.7,0-.7.34,0,5.26,1.4,10.52,5.26,14.37C77.27,47,77.62,47,77.62,45.92Zm5.6-1c0-5.65-.35-11.22-2.8-16.12C78.67,34.4,78,41.8,82.52,46c.32,0,.7,0,.7-1.14Zm4.91-.35a16.77,16.77,0,0,0,0-11.92c-1,3.51-2.45,7.36-2.1,11.22.35.65,1.4,2.4,2.1.65Zm3.15,1.75c2.22-2.21-1-5.6.71-7.71,0-.35.7,1.4.7,1,3.15-2.45,1.75-6.3,1.75-9.81,0,0,0-1.05-.35-1.05-1.75,1.4-2.46,3.51-3.5,5.6-1.41,2.81-.36,6-1.06,8.77-.35,1.4-1,3.5.7,4.21.36,0,.71-.71,1-1.06Zm6-2.1a13.93,13.93,0,0,0-.35,2.8c0,.36.35.36.7.36,2.1-1.41,2.81-3.86,4.21-6a6.88,6.88,0,0,0,.35-4.56v-1.4c-2.14,2.79-4.25,4.89-5,8.75Zm9.12-1.4c1.76-2.21,1.75-4.91,2.45-7.36A7.7,7.7,0,0,0,103.59,40c-.7,1.41-2.1,2.11-1.4,3.86l.35-.35c.35,1.4-1.05,2.1-1.4,3.15,0,.35,0,.71.35.71,2.41-.76,3.46-2.86,4.87-4.61Zm2.45,4.2A33.26,33.26,0,0,0,112,43.17c0-.35,0-1.05-.35-1.05-3.15,0-4.9,2.45-7,4.55-.7,1.06-2.8,3.16-1.4,3.51,2,.65,3.81-1.45,5.59-3.21Zm3.85,5.61c2.85-.48,5.26-2.8,8.06-3.51-4.2-2.1-9.11-.34-13,1.76-.7.7-1.76,1.75-1.05,2.1,1.4,1.35,3.85,0,6-.4Zm1,5.61c2.84-1,6-1.4,8.77-3.15-3.16-2.46-7-1.41-10.17.69-1,.36-2.45-.34-3.5,0-.7.36-1.75,1.41-1,2.11,1,2,3.81,1,5.91.3Zm-1,2.8c-.74.25-1.75,1-1.4,1.4,1.4,2.11,4.91,1.06,6.66-.35,2.8-2.1,6,.35,8.77-1-3.86-1.75-8.07-2.8-11.92-1.4-.74-.1-1.1,1-2.15,1.3ZM119,65.25a2.92,2.92,0,0,0-4.09.54,2.86,2.86,0,0,0-.46.86c0,1.4,2.8,1.4,4.2,1.75a10.13,10.13,0,0,0,3.16.7c1.4.35,2.1,2.11,3.85,1.41C124.23,68,121.43,67,119,65.2Zm-.35,7.36c2.15-.54,4.21.7,6.31,0,.7,0-.7-1-1-1.4-3.16-1.76-6.66-3.51-10.52-2.81-.35,0-1.4.36-1.4.7a5.9,5.9,0,0,0,6.57,3.46Zm-1.4,1.75c-.35,0-.35.35-.7.7,2.1,1.75,4.91,2.81,7,4.91.35.34.7-.35.7-.35-1.78-2.51-3.89-5.66-7-5.31Zm-1.05,6c2.1,2.11,4.55,4.57,7.71,3.87-1-2.46-3.16-3.51-4.91-5.26a5.61,5.61,0,0,0-3.85-1.76c-2.11-.35-3.51-1.75-5.26-1.75.66,3.11,4.17,2.76,6.27,4.85Zm-.35,5.62a21.35,21.35,0,0,1,5.61,4.2c.35.35.7,0,.7-.35-1.41-4.9-5.26-7.36-9.47-10.16-1-.35-3.5-1.4-3.15.35.29,2.75,3.46,4.5,6.29,5.91Zm-7.36,9.81c.44.88,1.4,1.05,2.1,1.75.7-1-.35-2.45-.35-3.5a11,11,0,0,0-3.15-6c-.35,1.05-1.76.35-1.76,1.05,0,2.45,2.07,4.55,3.12,6.65Zm-5.26-4.56c-1.37-1.09-2.8-1.05-4.2-1.75-.35,0-.35.35-.35.7,1.75,3.16,5.25,4.56,7.71,7,1-2.14-1.45-4.59-3.2-6Zm5.09-7.44c-1.37-1.09-2.8-1-4.21-1.75-.34,0-.34.35-.34.7,1.75,3.16,5.25,4.56,7.71,7,1-2.14-1.45-4.59-3.2-6Zm-12.1,12.7c1,3.8,3.5,6.31,5.26,9.46,2.1-2.8,1.05-7.71-1-10.51-.35-.35-.71.35-.71.35-1.4-.7-1.75-2.8-3.15-3.86-.35,0-.7,0-.7.36a17,17,0,0,0,.31,4.15Zm-3.5-3.15a11.94,11.94,0,0,0-2.81-3.16c-.35,0-.7,0-.7.35.35,5.61,2.1,10.51,6.31,14.72.35.35.7,0,.7-.35,0-3.5-1-6.66-2.1-9.81h-.7c-.39-.75-.39-1.1-.74-1.8Zm-2.89,6.6a10.88,10.88,0,0,0-4.2-8.06c-1,4.91,1.4,10.17,3.85,14.37C90.59,104.1,89.84,102,89.84,99.89Zm-6.3-2.1c.27-1.37.69-3.5-1.06-4.55-1,3.15-2.8,6.65-1,9.81a33.91,33.91,0,0,0,2.15-5.22Zm-3.86-3.5c-.27-1.08,0-3.16-.7-2.46-3.51,2.11-2.45,7.37-.35,10.87a11.62,11.62,0,0,0,1.09-8.41Zm-4.84,3.85c.7-1.4,1.4-3.15.7-4.55a13.54,13.54,0,0,1-3.5,2.8c-1.4.35-1.75,3.16-1.4,4.55.35,1.06,1.75-.7,2.8-1A3.45,3.45,0,0,0,74.84,98.14Zm-.35-7.36c-.18-1.09.35-3.15-.35-3.15-3.15.35-2.45,5.26-2.45,8.06,0,.35.35.7.7.35,1-1.75,2.45-3.15,2.07-5.21Zm-4.2-2.1c-2.48,0-3.51,1.75-4.91,3.51-.7,1.4-.35,3.15-1.4,4.55,4.2-.35,8.41-4.2,7.36-8.41a3.69,3.69,0,0,1-1.08.35Zm-1.75-3.15c0-1.11,1.4-3.16.34-2.81-2.45,0-3.85,2.81-4.9,4.91-.7,1.75-2.1,3.5-2.81,4.91-.35.7,1.06,0,1.76-.35,2.45-.7,3.5-3.86,5.61-5.61Zm-7-1.76a17.33,17.33,0,0,0-5.26,9.47c0,.35.35.35.7.35,1.75-1.4,3.5-2.46,4.2-4.21.71-2.45,2.81-4.55,3.16-6.66,0-1-2.14.35-2.84,1Zm1-3.85c.55-.56.7-1.4,1.4-1.75-.7-.71-1.75-.35-2.1-.35a51.87,51.87,0,0,1-10.52,7.35c-.35.36,0,.71.35.71,1.75-.35,4.21-.35,5.26-1.41a36.09,36.09,0,0,0,5.62-4.55Zm-4.91-3.86c-3.42,1.15-4.56,4.56-6.66,7.36,0,.35.7.35,1.05.35,3.16-3.15,8.41-4.2,9.11-8.41,0-1-2.44.35-3.49.7Zm-2.45-4.2c-1.59,1.58-3.86,2.1-4.91,3.85,0,.35-1.05,1.75-.7,1.4,2.45-1,9.81-2.1,6.66-5.6-.34-.35-.69,0-1,.32ZM58,67a.77.77,0,0,0-1-.35,11.65,11.65,0,0,0-9.82,4.21c-.34,0,.71-.35,1.06,0,0,.35-1.06.35-1.06.7a10.58,10.58,0,0,0,9.12-1.41c-1-1-2.1.36-3.16-.35,2.11-.35,4.91-.35,6.31-2.1,0-.35-1.09,0-1.44-.7Zm3.15-4.56c-3.52-2.35-8.41-1.75-12.26-4.2a1.23,1.23,0,0,0-.35.7,26.72,26.72,0,0,0,4.2,4.56c2.81,1.4,6,1,8.77.7.35,0,.71-1.06-.35-1.76Zm-1.75-7c-2.84-1-6-2.11-9.11-1.06,3.15,2.81,6.31,7.36,11.22,6L61.13,60c1.06-.7,2.81,0,3.86-.7-.7-1.05-2.8-1.05-3.15-2.45,0-.74-1.4-1.1-2.45-1.44Zm6.66.34c.34.1,1,0,1-.34-2.45-4.21-7.71-4.56-11.91-4.91-.35,0-2.11,0-1.76.7,1,1.75,3.86,2.45,6,2.45,2.42,0,4.18,1.41,6.63,2.1Zm2.46-2.45c.34,0,1.4.35,1.4-.35-1.06-4.55-5.26-6.66-8.77-8.76-.7-.35-1.75-1-2.8,0,3.16,2.8,4.91,6,8.06,8.76a4.42,4.42,0,0,0,2.12.35Zm-.71,4.91c-1.07-.27-1.75-.7-2.8,0,1,1.05,2.8,2.45,4.21,1.4.36-.35,0-1.05-1.36-1.4Zm-5.24,6.64c-1.79,0-3.16-.35-4.91.35,2.45,1,5.26,1,8.06,1.75.35,0,.35-.35.35-.7A4.47,4.47,0,0,0,62.55,64.83Zm-.7,6.66c.42-.26,1-.7,1-1-1.76-2.46-4.56-.71-6.31.7a4.76,4.76,0,0,0,5.25.37Zm2.45,0c-1.31.87-2.8,1.05-3.86,2.1-.35.35,0,.7.35.7,2.11-.35,4.91-.35,6-2.1.31-1-1.44-1.36-2.49-.68ZM66.75,76c.44-.22,1.4-.35,1-1.05,0-.35-.7-.7-.7-.7-1,.7-2.45,1-2.45,2.11s1.45,0,2.15-.34Zm1.4,3.86c.75-.25,1.41-1.75.36-2.1-1.41,0-2.46,1-3.51,2.1-.35.34,0,.7.35.7,1.05.37,1.75-.34,2.8-.68ZM72,84.11c1.4-.71.35-2.11-.35-2.11-1.4-.35-2.1,2.45-1.4,3.51.7.72,1-1,1.75-1.38Zm4.2.7c.32-.63-.7-1.41-1.4-1.06-.35.36-.7,1.06-1,1.4s0,.71.35.71a2.13,2.13,0,0,0,2.1-1ZM79,88c0-1,2.1-1.75.7-2.45-.7,0-1.75-.36-2.1-.36-1,1.06-.35,3.16.7,3.86.35,0,.7-.68.7-1Zm23.13-1.75a5.71,5.71,0,0,1-2.46-2.1c-1.75,2.45,1.41,4.2,3.16,4.2,1.05,0,0-1.73-.7-2.08ZM80.77,48.36c-1.13-.57-1-1.76-1.75-2.46-1,1.41.35,2.81.7,4.21.35,1,1.4,0,1.75-.35s0-1-.7-1.38Zm17.17,1c0-.35-.35-.35-.7-.35-.7.35-.35,1.06-.35,1.76,0,.35.35.35.7.35.7-.29.35-1,.35-1.7Zm5.26,4.21a2,2,0,0,1,.7-.7c-.7-1-1.75,0-2.45.7,0,.36,0,.7.35.7.7.06,1,.06,1.4-.64Zm2.1,6.31c-.15.31.35,1.4.7,1.4,1.06,0,2.11-1.05,3.16-1.75-1.4-1-3.16-1-3.86.41Zm5.26,5.26c1.79,0,3.51.7,4.91-.7-2.11-.35-5.61-1.76-6.31.35-.32.76.68.41,1.4.41Zm-1.75,2.8c.7.35,1.75-.35,1.4-.7-.35-1-2.8-1.4-2.8,0-.35.76.7.41,1.43.76Zm-.35,2.81c.25.24,1.05,0,1.4,0s.35-.35.35-.71c-.7-.7-1.4-1.39-2.45-1a.74.74,0,0,0-.7.7c-.35,1.09,1,.72,1.4,1.09Zm-1,6c.33-.11,1.4.35,1.4-.34C108.11,74.6,106,75,105,74.25c-.35-.35-1,1.4-.35,1.75.35,0,.35-.7,1.05-.7-.35,1.46.71,1.81,1.76,1.46ZM92.69,87.22c1.26-1.26-1.75-1.4-2.46-.7.71.35.36,2.1,1.4,1.75ZM66.05,62.68c.7,0,1.4.35,1.75-.35-1.4-.35-2.8-1-4.55-.35a3.75,3.75,0,0,0,2.8.76Zm7-9.81.35.35c.35,0,.7-.35.35-.7A19.3,19.3,0,0,0,71,50.77a1.23,1.23,0,0,0-.35.7c.71.76,1.41,1.81,2.46,1.46Zm11.57-6.31c0-1,.35-1.05.35-1.75,0-.35-.35-.7-.71-.35a3.36,3.36,0,0,0-.69,2.45c0,.36.35.36.69.36,0-.3.37-.3.37-.65ZM88,85.83c9.13,0,16.59-3.72,17.53-17.27.66-9.65-6.31-19.17-17.53-18.93-9.12.19-20.32,9-20.32,18.69,0,10.62,7.6,17.51,20.32,17.51Zm9.23-18.56c0-.35,0-2.1-1-1.4.35,0,.35.35.35.7-.35,1.05-1.75.7-2.1,0-.35-1.4,2.1-1.4,2.1-2.45,0-.35-.7-1.41-1.4-1.06,0,.36,0,.36.35.71,0,.35,0,.7-.35.7-1,.35-1-.7-1.75-1,.7-.36.7-1.41.7-2.11,0-.35-.7-.35-.7-.7,0-.7,1-1,.35-1.75a1.83,1.83,0,0,1-.7,1.4c-1,0-1.41.35-2.45-.35-.71-.35-1.06.35-1.76.35-1.4-.35-.7-2.8-2.45-2.8.7,1,1.4,1.4,1,2.8.35,0,.7,0,.7.35-.35,1-1.4.35-1.75,0-.35-.7-1.4-1-1.75-1.4-.7,0-1.41.35-2.11.35.7.35.7,1,0,1.75a1.28,1.28,0,0,0-1-.35c-.35.7.7.7,1,1,1.06-1,2.46-2.8,3.86-1.4,0,.35-1,.7-.35,1.4-1,.35-2.1,0-3.16.7v1.41c-1,1.05-2.45,1.75-3.15,3.15l-.7-.7c-.35,2.45,2.1.7,3.5,1a1.29,1.29,0,0,1,.35,1.06c-.7,1.39-1.75,0-2.45,0-.35.34.35,1.39-.35,1.75-1,.35-1.75-.71-2.45-.71a2.4,2.4,0,0,0,3.15,1.06c.7-.35,1-1.06,1.75-.71.35,0,.35.36.35.71-.35.7-1.4.7-2.1.7.35,1,1,1.75,0,2.45l-.7-.7v1c.7,1,1.75,0,2.1-.7h1c1,.7,1.41,1.4,1,2.45s-1.4-.35-2.1,0v.7c1.76,1.06,2.1-1.4,3.51-1.75.35-.35,0,1,1,1.41,0,.34.35,1-.35,1.4-.35,0-1-.71-1.4-.36s.35.36.35.71-.35.35-.7.35c.35.35-.36,1,.35.7,0-.35,0-1,.35-1,.7.7,1-.35,1.75,0,0-.35.35-1.06-.35-1.41,1.4-.34.7-1.75,2.1-2.1,0,0,.35.7.7.35,1.06-1.75,2.1-1.05,3.86-1.4.35,0,.35-1.75,1-1.4,1,0,2.1-1,2.8-1.75h-1.4c-.35,0-.35-.36-.35-.71a1.83,1.83,0,0,0,.7-1.4c0-.27.7-.62,1-1Zm-4.9-3.15c.15-.32,0-.35,0-.7a2.65,2.65,0,0,0-1.4-.71c-.71.35-1.06,1.41-.35,1.76.69,0,1.4.36,1.75-.32Zm-3.86-1.41c.35-.35.7-.35.7-.7-.35-.7-1-.35-1.4-.35-.7.35-.35,1.05-.35,1.4.35,1.09.7,0,1-.32Zm.7,10.17c.9.9.7-.7,1.41-.7a1.85,1.85,0,0,0-1.41-.7.74.74,0,0,0-.7.7c0,.38.36.38.7.73Zm-1.75,1.05c.25.75,1,.35,1.4.35,1-.7-.35-1-.7-1.4-.35,0-1,0-.7,1.08Zm-2.8-6.31c0-.7-.36-.7-.7-1.05-.71.35-.35,1.05-.35,1.4s.35.35.69.35c0-.32.36-.32.36-.67Zm-1-1.75c.55-.56-.36-.7-.71-1.05-.7.35-1,1.4-.35,1.75s.7-.32,1.06-.67Zm1.75,7c0,.35.7.35,1,.35s.35-.35.35-.7a1.28,1.28,0,0,0-1-.35,1.22,1.22,0,0,0-.35.74ZM93.74,68a.45.45,0,0,0-.12-.62.4.4,0,0,0-.23-.08c-.7-.35-1,.35-1.4.7.7.39,1.05,1.09,1.75,0Zm-.35,2.1c0-.35-.7-.35-1-.35s-.35.35-.35.71c.35.35.35.7.7.7s.7-.66.7-1Zm-3.16,0c-.35,0-.7,0-.7.36s0,.7.35.7h.71c.35,0,.35-.35.35-.7-.35,0-.35-.32-.71-.32Zm-3.5-5.6c.25-.25,0-.7,0-1s-.35-.36-.7-.36a2.7,2.7,0,0,0-.7,1.41c.35.74,1,.37,1.4,0Zm3.11.37c.32-.16,0-.7,0-1s-.35-.35-.7-.35l-.7.7c.4.32.74,1,1.4.65Zm.71-2.46c.74-.24.35-1.4-.36-1.75-.35,0-.7,0-.7.35-.31.72,0,1.77,1.1,1.42Zm2.8,0c.65-.43-.7-1.4-1-1.75-.35,0-.71,0-.71.35.4.72.75,2.12,1.8,1.42Zm.35,3.51c.78,0,.35-1.4-.35-1.75-.35.35-1,.35-.7,1.05.39.37.74.72,1.09.72Zm-9.11-2.1c.35,0,.35-.35.35-.71a1.28,1.28,0,0,0-1-.35c-.35,0-.35.35-.35.71a1.27,1.27,0,0,0,1.09.4ZM86.34,69c.35,0,.35-.34.35-.7-.7-1-.7.36-1,.36-.31.71.39.36.74.36Zm5.25-1.75a.75.75,0,0,0,.71-.7c0-.35-.35-.35-.71-.35l-.69.7c.38,0,.38.37.73.37Zm-3.15-1.75c1.26,0-.7-.7-.7-1.4-.35,0-.35.35-.35.7.39.37.74.72,1.09.72Zm-6,7c0,.35.35.35.7.35s.36-.35.36-.7c-.36-.35-.36-.7-.71-.7s-.27.73-.27,1.08ZM93,72.18c0-.79-1.41-1.05-1.76,0,0,.35,0,.7.35.7.79,0,1.49,0,1.49-.67Zm-5.26-.35c1.26,0-.35-.7-.35-1-.35.35-.7.35-.7.7s.78.3,1.13.3Zm7.71-3.15c.35-.36-.35-.71-.7-1.06-.35,0-.35.35-.35.7.48.39.78.73,1.13.39ZM85.6,65.87l-.7-.7c-.35,0-.71,0-.71.35a.75.75,0,0,0,.71.7c.43,0,.43-.32.78-.32ZM93,75.68c.35-1.4-1-1.05-1.76-1.4l-.34.7c.69,0,1.4.35,1.4,1,0,.36-.35.36-.71.36,0,.34,0,.34.36.34.78,0,.78-.67,1.13-1Zm2.45,1c-1-1-.35-2.1.35-3.5.7.7.35,2.1,1.4,2.45.35,0,.35-.35.7-.35s.35.35.35.7c.36,0,.71,0,.36-.35-.36,0-.71,0-.71-.35v-.7c0,.35-.35.35-.7.35s-.35-.35-.35-.7a2.49,2.49,0,0,0,1-2.1c0-.35-.7-.35-.7-.35-.35,1.75-2.45,1-2.8,2.1,0,1-1.75,3.15,0,3.15.48,0,.78-.32,1.13-.32Zm4.91-6.66c0-.35-.35-.7-.71-.35s.36,1.41-.34,1.76c1.13.35,1.48-.65,1.13-1.38Zm-2.46-2.45c.35.7-.35,1.06-.35,1.75,0,.35.46.6.7.35.79-.67.79-1.72-.27-2.07ZM94,51.16c.35.7-.36,1.05-.36,1.75,0,.35.46.6.71.35.78-.67.78-1.73-.27-2.07Zm6,14h-.7v.7c.42,0,1.13,0,.78-.66ZM82.84,56.83h-.7v.7C82.52,57.49,83.22,57.49,82.84,56.83Zm15.07,6.66c0-.36,0-.71.35-.71,0,.31,0,.67-.32.67ZM78.29,73h-.7c0,.35,0,.35.35.35Zm3.15-9.11c.35-.35-.35-2.46-1.4-1.41,0,.35,1.4.35,1,1.06-.35,1.05-1.4,0-2.1.35a1.1,1.1,0,0,0,.35.7c1.13,1,1.48-.39,2.18-.71Zm1.4-7c-.35.35-1-.35-.7.35,0,0,.7.3.7-.36Zm8.07,2.45c.69.35,0-.7.69-.7,0,0,0-.7-.35-.7s-.34,0-.34.35Zm5.25,1.4c0-.7-.35-1.4-.7-1.4-1,.35.35,1,0,1.75a1.24,1.24,0,0,0,.73-.4Zm-8.41-4.55c0-.36-.35-.36-.7-.36.35.36-.35.71.35.71ZM76.3,58.82c0-.35-.35-.35-.7-.35.35.35-.35.71.35.71ZM81,60.11c0-.36-.36-.36-.71-.36.35.36-.35.71.35.71Zm8.87-7.48c0-.35-.35-.35-.7-.35.35.35-.35.7.35.7ZM74.08,65c0-.35-.35-.35-.7-.35.35.35-.35.7.35.7Zm.12,2.21c0-.35-.35-.35-.7-.35.35.35-.35.7.35.7Zm2.92-.58c0-.35-.35-.35-.7-.35.35.35-.35.7.35.7Zm-2.69,2.57c0-.35-.35-.35-.7-.35.35.35-.35.7.35.7Zm2.11.58c0-.35-.36-.35-.71-.35.35.35-.35.7.35.7ZM74.9,71.44c0-.35-.35-.35-.7-.35.35.35-.35.7.35.7Zm.35,2.22c0-.35-.35-.35-.7-.35.35.35-.35.7.35.7Zm3.51,1.75c0-.35-.36-.35-.71-.35.35.35-.35.7.35.7Zm7.94-22c0-.35-.35-.35-.7-.35.35.35-.35.7.35.7Zm-3.27.23c0-.35-.35-.35-.7-.35.35.35-.35.71.35.71Zm-1.76.7c0-.34-.35-.34-.69-.34.34.34-.36.7.34.7Zm1.41,2.81c0-.35-.35-.35-.7-.35.35.35-.35.7.35.7Zm18.46,4.44c0-.36-.35-.36-.71-.36.36.36-.35.71.36.71Zm-11-5.14c0-.35-.36-.71-.71-.35v.7c.4,0,.4-.36.76-.36Zm4.67.47c0-.36-.35-.71-.71-.36v.71c.41,0,.41-.36.76-.36Zm1.87-3.16c0-.35-.35-.7-.7-.35v.7c.4,0,.4-.36.75-.36Zm8.17,13.9c.35-.35-.7-1-1-1.4,0-.35,1-.35,1-.7-.35-.35-1-1-1.4-.7s.7.7.7,1c0,1-1.71-.27-1.4.35s1.1,1.74,2.15,1.39Zm-.55,5.92c.35-.35-.7-1-1-1.4,0-.35,1-.35,1-.7-.35-.35-1-1-1.4-.7s.7.7.7,1c0,1-1.72-.28-1.4.35s1.1,1.74,2.15,1.39ZM105,63c.16-.47-1.09-.64-1.56-.8-.15-.31.79-.78.64-1.09-.47-.16-1.41-.48-1.57,0s.94.32,1.09.63c.46.94-1.66.51-1.1.94s1.76,1.08,2.55.31Zm-.08,6.81c.35-.7-.35-1.75-1.4-1.75a1.15,1.15,0,0,0,.35.71c.4.33.75,1.38,1.1,1Zm-1.61,6.47c.35-.7-.35-1.76-1.4-1.76a1.08,1.08,0,0,0,.35.71c.4.34.75,1.39,1.1,1Zm-2.71.08c.7.7.35,2.1,1,2.8.35.35.35,0,.35-.35a2.34,2.34,0,0,0-1.3-2.46ZM71.48,78c1.09.18,4,.07,4.82-.51-.29-.4-.52-1.15-.93-.86-.86.93-2.42-.4-2.93.58,0,.34-1.26.72-.91.78Zm2.11,2.3c1.11,0,4-.53,4.69-1.22-.35-.36-.69-1.06-1-.72-.72,1-2.46,0-2.82,1,0,.36-1.17.93-.82.93Zm2.43,2c1.1-.15,3.86-1.13,4.45-1.92-.39-.3-.84-.94-1.13-.55-.55,1.14-2.44.34-2.64,1.43.14.3-1,1-.63,1Zm2.7,1.57c1.06-.32,3.65-1.69,4.11-2.57-.43-.23-1-.8-1.2-.37-.38,1.21-2.35.7-2.39,1.81.15.29-.8,1.18-.47,1.08ZM81.63,85c1-.48,3.34-2.23,3.68-3.16-.47-.17-1.09-.65-1.25-.18-.19,1.25-2.22,1-2.09,2.14.2.27-.61,1.29-.29,1.15Zm3,.69c.92-.62,3-2.7,3.17-3.67-.49-.1-1.17-.48-1.27,0,0,1.26-2,1.37-1.74,2.44.29.24-.36,1.34-.07,1.18Zm3.12.23c.82-.75,2.53-3.12,2.57-4.11-.49,0-1.22-.3-1.25.2.2,1.25-1.8,1.66-1.35,2.67.33.2-.14,1.43.12,1.19Zm3.11-.24c.7-.87,2-3.47,1.93-4.45-.49,0-1.26-.11-1.21.38.39,1.21-1.53,1.91-.93,2.84.36.18.08,1.45.3,1.18Zm3-.71c.55-1,1.49-3.73,1.23-4.69-.48.13-1.26.08-1.13.56.55,1.13-1.23,2.12-.5,2.95.39.13.33,1.43.49,1.13Zm2.9-1.16c.4-1,.91-3.91.52-4.82-.46.2-1.24.27-1,.72.72,1-.9,2.28,0,3,.37.09.49,1.38.62,1.09Zm2.69-1.58c.25-1.08.32-4-.21-4.84-.42.26-1.18.45-.92.87.87.91-.55,2.39.4,3,.43,0,.74,1.26.82.92Zm-24.43-7.2c0,.35.35.7.7.35v-.7c-.7-.35-1,.35-1.4.7-1.4.7-3.15-1-4.55-.35a5.42,5.42,0,0,0,2.45,1A2.86,2.86,0,0,0,75.16,75Zm-1.75-1.75A7.32,7.32,0,0,1,69.47,73v.7a3.64,3.64,0,0,0,3.15.7c1.14-.4.79-.75.79-1.1Zm-.35-1c.35-.35-.35-.7-.35-.7-1.4,1-2.45-.35-3.5-.35,0,1.05,1.4,1.4,2.45,1.4.44,0,1.14-.4,1.49-.4Zm-.7-1.75c-1-.71-2.1-.71-3.15-1.41v.7a3.76,3.76,0,0,0,2.1.71Zm0-2.46c-1,.35-1.75-1.75-3.15-.7a3.19,3.19,0,0,0,2.45,1c.44,0,.79.36.79-.35Zm0-2.45c-1,.35-1.75-.35-2.45-.7v.7a1.83,1.83,0,0,0,1.4.7c1.14,0,1.14-.4,1.14-.75Zm0-2.1a1.68,1.68,0,0,0-2.1-.71c.35.35.35.71,1,.71Zm.35-1.76V61c-.7.35-1.05-.35-1.4-.35v.7c.35,0,.2.35.7.35Zm.7-2.45c-.35,0-1-.35-1.4.35,0,.35.35.35.7.35s1.14-.4.79-.75Zm5.13-5.48c-.35,0-1.06-.36-1.41.35,0,.35.35.35.71.35s1.14-.4.79-.75Zm2.47-1.18c-.36,0-1.06-.35-1.41.35,0,.35.35.35.7.35s1.14-.4.8-.75ZM74,57.54c-.35-.35-.7,0-.7.35s0,.35.35.35.79-.41.44-.75Zm24.89,3c-.35-.35-.71,0-.71.34s0,.35.36.35.79-.4.44-.7Zm2.92-2.46c-.35-.35-.7,0-.7.35s0,.35.35.35.79-.36.44-.71ZM100,56.21c-.36-.35-.7,0-.7.35s0,.36.34.36.8-.37.45-.72Zm-2.22,2.1c-.35-.35-.7,0-.7.36s0,.35.35.35.79-.36.45-.72Zm.7-3.85c-.35-.35-.7,0-.7.35s0,.35.35.35.75-.33.44-.71Zm-19.16,1c-.35-.35-.7,0-.7.35s0,.35.35.35.79-.38.44-.71Zm-1.64,1.17c-.35-.35-.7,0-.7.35s0,.35.35.35.79-.36.44-.71Zm-2.68,4c-.35-.35-.71,0-.71.35s0,.35.36.35.79-.39.44-.74Zm2.33,1.75c-.35-.35-.7,0-.7.35s0,.35.35.35.79-.39.44-.74Zm-3.15.35c-.35-.35-.7,0-.7.35s0,.36.35.36.79-.4.44-.75Zm1.28-7c-.35-.34-.7,0-.7.36s0,.35.35.35.77-.4.44-.76Zm9.12-4.55c0-.35-.7-.35-1.05-.35-.36.35,0,.7.35.7a1.28,1.28,0,0,0,.79-.4Zm1.75-.35-.35-.35-.35.35c0,.35,0,.35.35.35Zm2.1-.35h-.7c0,.35,0,.35.35.35Zm1.75,0h-.7v.7c.4,0,1.15,0,.79-.75Zm2.46.7c0-.7-.35,0-.7-.35.09.65.44-.05.79.3ZM82.52,87.63a1.44,1.44,0,0,0,.35-1.4c0-.35-.35-.35-.7-.35a1.28,1.28,0,0,0-.74,1.65.42.42,0,0,0,0,.1c.37.7.7.35,1,0Zm3.86.35V87c0-.35-.35-.35-.7-.35-1,.7,0,1.4.35,2.1C86,88.33,86.38,88.33,86.38,88Zm16.82-6.31c.16-.31,0-1-.35-1-.35.35-1,.35-1.4,1,0,.35,0,.7.35.7C102.15,81.67,102.84,82.37,103.2,81.67ZM76.92,51.18a.45.45,0,0,0,.62-.12.4.4,0,0,0,.08-.23c-.7-.35-.7-1.76-1.41-1.41C75.51,49.42,76.21,50.83,76.92,51.18Zm-1.76-1c.35,0,0-.71-.35-.71s-1,0-1,.36a.74.74,0,0,0,.7.7c.38,0,.38-.35.7-.35Zm20-3.16c.35,0,.35-.35.35-.7-.7-1.05-.7.35-1,.35-.42.71.33.35.63.35ZM90.61,77.46H88.84c-.35.36,0,.71.35.71.65,0,1,0,1.4-.71Zm-.36-1.4h-1c-.35.36,0,.7.35.7h.7Zm5.26-16.82c-.7.7,0,1,.35,1.75.68-.7,0-1.05-.37-1.75Zm-3.86-1.05c0-.35-.35-.7-.69-.35v1.4c.34,0,.34,0,.34-.35s.33-.35.33-.7Z"/><path class="f9fee5a5-ae91-4168-804f-99521053cf1f" d="M49.07,215.65c-5.48,0-9.44-3-9.44-8.72,0-5.19,3.39-9,9.59-9,5.28,0,9.51,2.85,9.51,8.53C58.73,212.83,54,215.65,49.07,215.65Zm.2-16c-3.74,0-5.17,3.51-5.17,7.37,0,4.89,2.41,6.86,5,6.86,3.12,0,5.18-2.71,5.18-7.4,0-4-1.82-6.8-5-6.8Zm19.41,7.42a2.37,2.37,0,0,0-1.33-.51c-1.72,0-1.72,1.91-1.72,3.49a48.28,48.28,0,0,0,.25,5.28,16.73,16.73,0,0,0-2.24-.12,15.67,15.67,0,0,0-1.94.12,52.63,52.63,0,0,0,.17-5.33c0-2.61,0-4.47-.19-6.76a16.65,16.65,0,0,0,2,.12,15.19,15.19,0,0,0,1.91-.12l-.17,2.58c1.16-2.87,2.46-2.8,3.69-2.73a21.1,21.1,0,0,0-.17,3.81ZM73,215.38a2.12,2.12,0,0,1-1.72-2.09c0-.54.22-1.89,2.48-2.46v-.22a3.65,3.65,0,0,1-3-3.61c0-2.51,2.06-4,5.19-4a17.27,17.27,0,0,1,2.38.23,16.79,16.79,0,0,0,3,.24,11.27,11.27,0,0,0,1.57-.07,1.41,1.41,0,0,0-.12.64,2.46,2.46,0,0,0,.12.76l-2.31-.1a2.91,2.91,0,0,1,.91,2.26c0,2.85-2.73,4-5.21,4a6.7,6.7,0,0,1-1-.05l-.36-.08a1.2,1.2,0,0,0-.72,1c0,.81.69,1,3,1,3.22,0,3.71.23,4.32.72a3.51,3.51,0,0,1,1.21,2.85c0,2.45-2,5.6-7,5.6-3.31,0-5.35-1.47-5.35-3.68a3,3,0,0,1,2.63-2.83ZM79.71,218a2,2,0,0,0-1.79-2.16c-.37-.08-2.65-.15-3.1-.15a1.28,1.28,0,0,0-1.35.69,2.92,2.92,0,0,0-.59,1.7c0,1.25,1,2.67,3.32,2.67,2.87,0,3.51-1.77,3.51-2.75Zm-2-11c0-1.84-.49-2.78-1.6-2.78-1.5,0-1.69,1.82-1.69,3.1,0,.89.07,2.63,1.67,2.63,1.27,0,1.61-1.34,1.61-3Zm7.63-.72a4.44,4.44,0,0,0-.44-1.55,7.33,7.33,0,0,1,4.67-1.62,5.48,5.48,0,0,1,3.69,1.18,3.59,3.59,0,0,1,1,2.82c0,1.19-.13,2.83-.13,5.29,0,.91,0,1.72.84,1.72a1.2,1.2,0,0,0,.81-.3,3.35,3.35,0,0,0,0,1,5.23,5.23,0,0,1-2.63.86,2.28,2.28,0,0,1-2.33-1.6,3.82,3.82,0,0,1-3.37,1.69A3.16,3.16,0,0,1,84,212.94a3,3,0,0,1,0-.52c0-2.56,1.62-3.08,4.92-4.06,1.72-.51,1.74-.61,1.74-1.28A1.93,1.93,0,0,0,88.88,205a1.85,1.85,0,0,0-.47,0,4.24,4.24,0,0,0-3,1.3Zm2.29,5.7c0,.74.17,1.82,1.47,1.82a1.35,1.35,0,0,0,1.38-1.08,19,19,0,0,0,.12-3.54C88.27,209.63,87.63,210.22,87.63,211.94Zm13.64-6.78a4.32,4.32,0,0,1,3.78-2.09,4.24,4.24,0,0,1,3.39,1.42,4.15,4.15,0,0,1,.67,2.63v5.17c0,1,0,2,.12,3a18.66,18.66,0,0,0-2.11-.12,16.65,16.65,0,0,0-2,.12,51,51,0,0,0,.24-5.53c0-3-.1-4.42-1.89-4.42-1.55,0-2,1.23-2,2.83v5.28c0,.62,0,1.23.12,1.84-.63-.07-1.27-.11-1.91-.12a16.08,16.08,0,0,0-2.19.12c.12-1.23.17-2.43.17-3.66V207a32.31,32.31,0,0,0-.2-3.81,16.65,16.65,0,0,0,2,.12,13.34,13.34,0,0,0,2-.12Zm15-6.15a2.06,2.06,0,1,1-2.12-2h.12A2.06,2.06,0,0,1,116.31,199Zm-4.11,4.23a18.7,18.7,0,0,0,2.12.12,16.65,16.65,0,0,0,2-.12c-.17,1.75-.19,3.54-.19,5.28,0,2,.07,4.85.24,6.81a19.19,19.19,0,0,0-2.14-.12,16.65,16.65,0,0,0-2,.12c.17-1.87.22-4.22.22-6.14a53.72,53.72,0,0,0-.25-5.95ZM129.55,213a8.66,8.66,0,0,0-.76,1.67,5.88,5.88,0,0,1-3.54.91c-4.62,0-6.41-3.07-6.41-6.12,0-5.9,5-6.49,6.73-6.49a6.27,6.27,0,0,1,4,1.16,9.82,9.82,0,0,0-.88,2.8H128c-.24-1.87-1.37-2.43-2.21-2.43-2.51,0-2.78,3.27-2.78,4.62,0,2.33.91,4.59,3.59,4.59a3.58,3.58,0,0,0,2.53-1.2ZM52,5.11a4.52,4.52,0,0,0-4.3-2.41c-3.76,0-5.58,3.24-5.58,7.13,0,4.13,2.06,7,5.87,7A6.77,6.77,0,0,0,52.64,15l.42.25a14.57,14.57,0,0,0-.71,2.33,12.1,12.1,0,0,1-5.26,1.11c-6,0-9.41-3.83-9.41-8.72,0-5.19,3.73-8.9,9.68-8.9a13.75,13.75,0,0,1,5.92,1.25,10.23,10.23,0,0,0-.71,2.83ZM66.48,15.75a9.3,9.3,0,0,0-.64,1.79,7.93,7.93,0,0,1-4.32,1.21c-4.08,0-6.32-2.66-6.32-6.37,0-4.59,3-6.29,6.17-6.29,3.83,0,5.53,2.44,5.53,5.51a8.42,8.42,0,0,1-.08,1c-1.42-.07-2.85-.1-4.27-.1-1,0-1.7,0-3.32.1,0,1.52.27,4.15,3.56,4.15A4.18,4.18,0,0,0,66,15.35ZM63,11.15c0-2.9-.52-3.88-1.77-3.88-1,0-2.09.81-2,3.88Zm13.34-1a2.3,2.3,0,0,0-1.32-.51c-1.72,0-1.72,1.91-1.72,3.49a50.28,50.28,0,0,0,.24,5.28,16.58,16.58,0,0,0-2.23-.12,16,16,0,0,0-1.95.12,47.39,47.39,0,0,0,.18-5.33c0-2.61,0-4.48-.2-6.76a16.65,16.65,0,0,0,2,.12,15.47,15.47,0,0,0,1.92-.12l-.17,2.58c1.15-2.88,2.45-2.8,3.68-2.73A22.06,22.06,0,0,0,76.64,10Zm7.53-8c-.1,1.45-.3,3.54-.3,4.38.54,0,1.38-.08,2.11-.13a3.22,3.22,0,0,0-.09.76,2.83,2.83,0,0,0,.09.82c-.71-.05-1.55-.13-2.11-.13q-.1,3.41-.1,6.81c0,1.47,0,2.58,1.21,2.58a2.59,2.59,0,0,0,1-.22,4.07,4.07,0,0,0-.07.61,3.81,3.81,0,0,0,.07.59,8.3,8.3,0,0,1-2.7.57,3.22,3.22,0,0,1-2.46-.94,3.37,3.37,0,0,1-.81-2.67c0-2,.1-5.29.1-7.33-.47,0-1.06.08-1.55.13a2.53,2.53,0,0,0,.1-.82,3.23,3.23,0,0,0-.1-.76c.62,0,1.18.13,1.55.13,0-1.09,0-1.85-.07-2.78a22.13,22.13,0,0,0,3.88-1.82Zm8.55,0a2.06,2.06,0,1,1-2.12-2h.12A2.06,2.06,0,0,1,92.46,2.06ZM88.35,6.29a18.7,18.7,0,0,0,2.12.12,16.65,16.65,0,0,0,2-.12c-.17,1.74-.19,3.54-.19,5.28,0,2,.07,4.84.24,6.81a19.19,19.19,0,0,0-2.14-.12,16.65,16.65,0,0,0-2,.12c.17-1.87.22-4.23.22-6.14a53.72,53.72,0,0,0-.25-5.95Zm12.29,7.13a46.32,46.32,0,0,0,.17,5,18.66,18.66,0,0,0-2.11-.12,14.15,14.15,0,0,0-2.06.12,40.32,40.32,0,0,0,.22-4.79V7.83a10.85,10.85,0,0,0-1.5.13c0-.27.1-.52.1-.79s-.08-.49-.1-.79a7.74,7.74,0,0,0,1.52.13C97.47,1.64,100,0,102.26,0a5.64,5.64,0,0,1,1.08.1,8.12,8.12,0,0,0-.26,2.08,8.47,8.47,0,0,0,.07,1.13l-.3.15a5.09,5.09,0,0,0-2.31-.69c-.64,0-1.23.23-1.23.94a6.48,6.48,0,0,0,1.21,2.78,13.51,13.51,0,0,0,2.11-.13,3.49,3.49,0,0,0-.1.79,3,3,0,0,0,.1.79c-.12,0-1.23-.1-2-.13Zm7.82-11.36a2.06,2.06,0,1,1-2.12-2h.12A2.06,2.06,0,0,1,108.46,2.06Zm-4.11,4.23a18.7,18.7,0,0,0,2.12.12,16.65,16.65,0,0,0,2-.12c-.17,1.74-.19,3.54-.19,5.28,0,2,.07,4.84.24,6.81a19.19,19.19,0,0,0-2.14-.12,16.65,16.65,0,0,0-2,.12c.17-1.87.22-4.23.22-6.14a53.72,53.72,0,0,0-.25-5.95ZM122,15.75a9.3,9.3,0,0,0-.64,1.79A7.93,7.93,0,0,1,117,18.75c-4.08,0-6.32-2.66-6.32-6.37,0-4.59,3-6.29,6.17-6.29,3.83,0,5.53,2.44,5.53,5.51a8.42,8.42,0,0,1-.08,1c-1.42-.07-2.85-.1-4.27-.1-1,0-1.7,0-3.32.1,0,1.52.27,4.15,3.56,4.15a4.18,4.18,0,0,0,3.25-1.4Zm-3.44-4.6c0-2.9-.52-3.88-1.77-3.88-1,0-2.09.81-2,3.88ZM133,16.73a3.77,3.77,0,0,1-3.54,2c-3.56,0-5.36-2.67-5.36-6.26,0-3.3,1.6-6.32,5.19-6.32a4.59,4.59,0,0,1,3.61,1.53A72.68,72.68,0,0,0,132.71.3a20.32,20.32,0,0,0,2.21.13,16.65,16.65,0,0,0,2-.13c-.3,4.2-.32,8.46-.32,12a54.69,54.69,0,0,0,.19,6.14c-.66-.07-1.33-.11-2-.12s-1.28.05-1.92.12Zm-2.38-8.84c-1.82,0-2.39,2-2.39,4.76,0,1.45.25,4.43,2.31,4.43s2.36-3.25,2.36-4.75-.22-4.44-2.28-4.44ZM55.06,120.45c-1-2.7-4.2-4.41-7.57-4.41-6.62,0-9.82,5.94-9.82,13.06C37.67,136.67,41.3,142,48,142c3.41,0,5.83-1.49,8.13-3.52l.73.46a27.82,27.82,0,0,0-1.25,4.27,20.59,20.59,0,0,1-9.26,2c-10.59,0-16.56-7-16.56-16,0-9.51,6.57-16.31,17-16.31a23.21,23.21,0,0,1,10.42,2.3A18.86,18.86,0,0,0,56,120.41Zm28.63,0c-1-2.7-4.2-4.41-7.57-4.41C69.5,116,66.3,122,66.3,129.1c0,7.57,3.63,12.93,10.34,12.93,3.41,0,5.83-1.49,8.13-3.52l.73.46a27.82,27.82,0,0,0-1.25,4.27,20.59,20.59,0,0,1-9.26,2c-10.59,0-16.56-7-16.56-16,0-9.51,6.57-16.31,17-16.31a23.21,23.21,0,0,1,10.42,2.3,18.86,18.86,0,0,0-1.25,5.18Zm19.93,24.91C94,145.36,87,140,87,129.36c0-9.5,6-16.49,16.87-16.49,9.3,0,16.74,5.23,16.74,15.63,0,11.59-8.31,16.86-17,16.86Zm.35-29.28c-6.58,0-9.08,6.44-9.08,13.52,0,9,4.23,12.56,8.73,12.56,5.49,0,9.13-4.95,9.13-13.56,0-7.43-3.16-12.52-8.78-12.52Zm28.54,21.85a49.75,49.75,0,0,0,.33,6.9,21,21,0,0,0-3.72-.27c-1.39,0-2.9.13-4.33.27a40.72,40.72,0,0,0,.39-6.62v-17.4c0-2.38-.13-4.72-.3-7.25a54.48,54.48,0,0,0,7.22.36c2.94,0,6.53-.13,10.2-.36a14.79,14.79,0,0,0-.21,2.3,11.22,11.22,0,0,0,.21,2.16,66.18,66.18,0,0,0-9.64-.58c0,1.35-.13,3.6-.13,5v4.32a61.22,61.22,0,0,0,9.47-.49,18.14,18.14,0,0,0-.21,2.07,17,17,0,0,0,.21,2.25c-2.07-.36-4-.4-9.47-.4ZM145,150h-58c.07,1.27.67,2.27.67,3.26A4.52,4.52,0,0,0,90.2,155h2.45a16.1,16.1,0,0,1,9.12,1.05c2.11.7,3.16-1.75,5.27-1.05a2.68,2.68,0,0,0-.71,1.4c1.76,1.4,3.77.7,6.32.7,1,0,2.11-.7,3.16-1,4.91-.7,9.82.7,14.38-1.41.7,0,1.75-.34,2.46.36-1.41,1.05-4.21,1.05-4.21,2.45.7,2.1,4.21.7,6.31,2.1-3.16,1.06-6.31-.34-8.77-1.4s-5.26-.7-8.06,0c-1.41.36,1,1.4,0,1.76-.36,0-1.06-.7-1.41-.7-4.21.7-8.07,0-11.93-.36,2.11,1.76,4.21,3.87,6.67,4.57,2.1,1,4.91,0,7,1.4-2.11.35-4.57,0-6.67.35,1.4,1,11,5.15,12,6.55,0,.18-1.81.36-3.86-.47-.46-.19,4.65,5.79,4.21,5.62-1.42-.58-8.4-8.19-8.53-8.19a15.7,15.7,0,0,1-6.32-2.46c-1.4-.7-1.75-2.8-3.51-3.86a4.94,4.94,0,0,0-2.1-.7c-.7,0,0-1-.7-1-2.46-.7-4.56-2.46-7-2.81.7,1,2.1,1.41,2.46,2.81,0,0-.71.35-.36.7h.71c.7.35.7,1.41,1,2.11,1.05,1.4,2.46,2.1,3.86,3.15,1.4.7,3.16,1.06,4.21,2.46,0,.35-.7.35-1,.35a20,20,0,0,0,3.5,4.91c3.55,3.69,8.76,7.85,8.43,8.19-1.64,1.64-13.09-11.34-13.1-10.06,0,3.39.6,8.85,0,8.66s-2.65-13.17-3.1-13.46c-3.14-2-4.64-6.53-8-8.07a16.6,16.6,0,0,0-6-1.4c1,1.76,1.4,3.51,2.46,5.27s3.51,2.1,5.26,2.8c.35.35,1.75.7,1,1.76-.7.35-1.75-.35-2.45.35.35.35,2,3.86,1.64,3.86a18,18,0,0,1-3.28-4c-2.1-2.45-4.68-4.09-5-7.6-1.4,4.56-.35,9.47.7,14,.35,2.46,2.46,3.86,4.56,4.91-1.05.7-2.8,0-3.15,1.41-.36,1.75,1,3.51,0,5.26-2.46-2.81-.36-7-2.46-9.82-.35,0-1-.35-1.4.35-.7-2.81,1.75-6.32-.7-8.42-1.06-.35-.35,1-1.06,1.4-.34,0-1.28-.82-1.28-.82a16.05,16.05,0,0,0,2.34-9.7c-.71,0-.35-1.06-.71-.7a39.37,39.37,0,0,0-2.45,5.61c-1,2.45.35,5.61-.7,8.42a9.16,9.16,0,0,1-1.06-6c-2.1,1.41-2.1,3.86-2.8,6-.35,2.45,0,4.91,0,7.37-.35,2.1,2.46,2.8,3.16,4.91,0,.35,0,1.05-.36,1.05-.7-.7-1.4-2.11-2.45-2.81-.7-.7-1.4,1.06-1.4.35-.35-3.86-1.06-8.06,0-11.93-1.41-.35-1.76,1.06-2.81,1.76-.35,0-.7,0-.7-.35.7-2.11,3.16-2.81,3.51-4.21a32.75,32.75,0,0,1,4.91-9.13c-5.61,1.41-7.72,7-9.82,11.23a52.61,52.61,0,0,0-2.81,6.67c-.7,1.75-.35,3.86-1.76,5.61-.7-1.4.71-3.15-.35-4.56-.35-.35-1.75.7-1.4,0,1-1.75,2.34-2.81,3.39-4.91,1.4-4.56,3.75-9.36,7.14-11.93-6.67,1.06-11.58,5.61-16.84,9.82a1.26,1.26,0,0,1-.71-.35c1.76-2.45,4.56-3.86,6.32-6-1.4.35-2.81,1-4.21,1.4-1.4.7-2.46,1.41-3.86,2.11a18.2,18.2,0,0,0-6.32,11.23c-1.75-.71-.35-3.16-1-3.51-1-.71-3.15,1.4-4.56.35,1.41-.7,3.16-1.06,4.56-2.11C54.13,170,57.64,163.71,65,163a5.59,5.59,0,0,0,3.51-1.75c-6.32-.35-13.34,0-17.9,4.91a1.23,1.23,0,0,1-.35-.7c.7-.7,1-1.76,1.76-2.46-1.06-.7-2.11,0-3.16-.7,1.4-.7,2.81-.35,4.21-.35.7-.35,1.05-.7,1.75-.7,0-.7-1.75-.7-.7-1.4,1-.36,2.11,1.4,3.16,1,2.46-.35,5.26-.7,7.72-1C59.4,157.05,52.73,155,46,156c-2.45.35-4.56,1.75-7.36,2.46-2.81.34-4.56,3.15-7.72,3.5,1.4-2.1,3.51-2.8,5.26-4.21-1-.35-2.45.35-3.51-.35,1.41-.7,2.81,0,4.21-1.05,1.41-.35,2.81.35,4.21-.35,1.76-.7,3.16-1.75,4.91-2.11,5.26-1,9.83,1.41,14.74,1.06.35,0,.35.7,0,1.05a4.32,4.32,0,0,1,2.1.35c3.51,3.51,8.07,3.15,12.63,2.81.35,0,.35-.36.35-.7-.7-.71-1.75-1.41-1.75-2.46,0-.35.35-.35.7-.35a11.81,11.81,0,0,0,2.06,2.18c.7,0,1.4,0,1.75.71,1.4-1.41,3.51-2.46,4.56-4.21.94-2.19-.47-2.54.44-4.32H22.94s.08,13.9.08,20.22c0,9.32,7.36,21.11,19.58,21.11H127c8.17,0,18.08-8.83,18.08-18.44S145,150,145,150Zm20.82,57.63a3.89,3.89,0,1,1-3.87,3.91v0a3.82,3.82,0,0,1,3.76-3.88Zm0,.6a3.29,3.29,0,0,0,0,6.57,3.16,3.16,0,0,0,3.1-3.22v0a3.19,3.19,0,0,0-3.08-3.3Zm-.73,5.54h-.69v-4.33a7.3,7.3,0,0,1,1.23-.11,2.3,2.3,0,0,1,1.35.33,1.14,1.14,0,0,1,.12,1.59,1.19,1.19,0,0,1-.58.36c.39.07.64.41.73,1.05a3.32,3.32,0,0,0,.28,1.07h-.71a3.31,3.31,0,0,1-.29-1.11.81.81,0,0,0-.86-.76h-.56Zm0-2.4h.5c.57,0,1.06-.21,1.06-.74,0-.38-.28-.76-1.06-.76h-.5Z"/></svg>