<svg id="a7ca98a2-e544-494c-ad13-001cd32e5674" data-name="Layer 1" xmlns="http://www.w3.org/2000/svg" xmlns:xlink="http://www.w3.org/1999/xlink" viewBox="0 0 500 500"><defs><style>.f742edde-fc9a-4558-8f64-11ab18e6680a{fill:#723904;}.acd6e583-ee2a-44c6-94c7-2cbec2d11992,.b36fb338-fc7d-4e8e-ae89-2057aa778894,.b5331593-8280-4b82-9726-618a252afdb6,.b63e4a6e-c82e-42c5-8aca-b3f89d2da000,.bd7829cd-25ef-4ba6-854e-47a66618b5de,.f0c7b897-fe8a-4988-a451-3cf4c71dcb13,.f742edde-fc9a-4558-8f64-11ab18e6680a{fill-rule:evenodd;}.b36fb338-fc7d-4e8e-ae89-2057aa778894{fill:#fff;}.acd6e583-ee2a-44c6-94c7-2cbec2d11992{fill:#008356;}.f0c7b897-fe8a-4988-a451-3cf4c71dcb13{fill:url(#a818f7e7-84ba-4bfd-9f8e-5631198f107f);}.b63e4a6e-c82e-42c5-8aca-b3f89d2da000{fill:url(#b4f8171c-e9da-4854-bfbf-4e26bdf531ac);}.bd7829cd-25ef-4ba6-854e-47a66618b5de{fill:url(#b8c82064-527b-4f86-8b62-28d40ab96c82);}.b5331593-8280-4b82-9726-618a252afdb6{fill:url(#bc3e7644-f2be-4b9a-a653-931da298d5c0);}.bb346297-e238-4b40-9f15-85621e508ff3{fill:none;stroke:#fff;stroke-linejoin:round;stroke-width:3.23px;}</style><linearGradient id="a818f7e7-84ba-4bfd-9f8e-5631198f107f" x1="337.8" y1="105.81" x2="440.8" y2="237.99" gradientTransform="matrix(1, 0, 0, -1, 0, 500)" gradientUnits="userSpaceOnUse"><stop offset="0" stop-color="#fff" stop-opacity="0.34"/><stop offset="1" stop-color="#fff" stop-opacity="0.1"/></linearGradient><linearGradient id="b4f8171c-e9da-4854-bfbf-4e26bdf531ac" x1="338.61" y1="105.22" x2="448.13" y2="244.74" gradientTransform="matrix(0.97, 0.26, 0.26, -0.97, -61.69, 373.9)" xlink:href="#a818f7e7-84ba-4bfd-9f8e-5631198f107f"/><linearGradient id="b8c82064-527b-4f86-8b62-28d40ab96c82" x1="363.39" y1="114.46" x2="468.26" y2="240.21" gradientTransform="matrix(0.89, 0.46, 0.46, -0.89, -98.62, 255.6)" xlink:href="#a818f7e7-84ba-4bfd-9f8e-5631198f107f"/><linearGradient id="bc3e7644-f2be-4b9a-a653-931da298d5c0" x1="383.06" y1="106.07" x2="485.82" y2="218.73" gradientTransform="matrix(0.77, 0.63, 0.63, -0.77, -86.72, 127.86)" xlink:href="#a818f7e7-84ba-4bfd-9f8e-5631198f107f"/></defs><title>usda-organic</title><path class="f742edde-fc9a-4558-8f64-11ab18e6680a" d="M500,250c0,138.07-111.93,250-250,250S0,388.07,0,250,111.93,0,250,0,500,111.93,500,250Z"/><path class="b36fb338-fc7d-4e8e-ae89-2057aa778894" d="M473,250c0,123.16-99.84,223-223,223S27,373.16,27,250,126.84,27,250,27,473,126.84,473,250Z"/><path class="acd6e583-ee2a-44c6-94c7-2cbec2d11992" d="M473,250c0,123.1-99.9,223-223,223S27,373.1,27,250Z"/><path class="f0c7b897-fe8a-4988-a451-3cf4c71dcb13" d="M286,470.88,444,264.5,270,471"/><path class="b63e4a6e-c82e-42c5-8aca-b3f89d2da000" d="M176.13,455.37l261.31-197.1L165.07,448.36"/><path class="bd7829cd-25ef-4ba6-854e-47a66618b5de" d="M91.89,405.9,427.68,260.27,82.62,396.67"/><path class="b5331593-8280-4b82-9726-618a252afdb6" d="M46.94,331.92l379.29-74.54L39.73,321"/><path class="bb346297-e238-4b40-9f15-85621e508ff3" d="M473,250c0,123.16-99.84,223-223,223S27,373.16,27,250,126.84,27,250,27,473,126.84,473,250Z"/><path class="acd6e583-ee2a-44c6-94c7-2cbec2d11992" d="M121,129h22.5v71.86s.06,6.84,6.88,6.84,7.81-6.78,7.81-6.78V129.06h21.93V201s.08,24-29.31,24C121.6,225,121,201,121,201Zm102.62,29.76H244S245.72,129,215.84,129c-8.13,0-16.21,3.52-20.48,8.16-4.62,5-6.92,10.05-6.92,18.68,0,6.76.72,17,18.21,26.84,10.71,6,17,10.49,17,16.86s-3.53,8.6-8.48,8.6c-6.64,0-7.47-7.08-7.47-7.91s-.13-7.92-.13-7.92h-21S182.61,225,214.61,225c31.13,0,29.34-23.91,29.34-28.9,0-16-7.78-21.27-20.15-28.22-10.15-5.7-15.2-9.12-15.2-14.79s3.84-7.23,6.89-7.23c8.28,0,8.19,7.75,8.19,8.56S223.8,158.93,223.62,158.76ZM253.32,129h30.94c8.48,0,26.69,2.92,26.69,21v54.2C311,217.65,298.88,225,286,225h-32.7V129Zm22.12,17.62h7.19c4,0,6.2,1.85,6.2,13.28v34.31c0,8.52-.3,13.17-5.79,13.17h-7.6V146.62ZM339.5,225H318.12l20.26-96h25.74l20.76,95.74H362.25l-2.63-17.56H343Zm5.88-34.86h11.74l-5.5-43.32Z"/><path class="b36fb338-fc7d-4e8e-ae89-2057aa778894" d="M254.9,349.12H238.85l15.21-72H273.4L289,348.93H272l-2-13.17H257.53l-2.63,13.36ZM259.32,323h8.82L264,290.49Z"/><path class="b36fb338-fc7d-4e8e-ae89-2057aa778894" d="M104,277.12h8.5a17.77,17.77,0,0,1,17.93,17.69v36.62a17.77,17.77,0,0,1-17.93,17.69H104a17.78,17.78,0,0,1-17.94-17.69V294.81A17.78,17.78,0,0,1,104,277.12Zm4.25,12a5.74,5.74,0,0,1,5.65,5.84v36.26a5.66,5.66,0,1,1-11.31,0V295a5.74,5.74,0,0,1,5.66-5.84Z"/><path class="b36fb338-fc7d-4e8e-ae89-2057aa778894" d="M154.86,320.72v28.4h-16.8v-72h26c10.08,0,18.38,4.33,18.38,19.54s-7.6,14.74-7.6,16.55c0,2.58,7.43-2.06,7.43,18.36,0,16.42,2.47,14.84,2.47,16.15s-.09,1.36-.09,1.36h-19V328.59c0-6.61-3.86-7.87-10.78-7.87ZM154.59,307V290.08c3.65,0,11-1.43,11,8.3S160.4,307,154.59,307Zm62.84,15.32H211.6V310.35h22.45v37.56H222.21v-6.23s-3.18,7.44-14.85,7.44-18.21-8-18.21-17.48V292.87c0-9.17,10.08-15.75,22.28-15.75s22,6.75,22,15.41,0,9.86,0,9.86H217.08v-8c0-3.12-3.53-5.37-5.48-5.37s-6.1,1.39-6.1,6v34.52c0,4.16,1.68,7.1,5.75,7.1a6.43,6.43,0,0,0,6.36-6.58c0-3.11,0-8.3-.18-7.79Z"/><path class="b36fb338-fc7d-4e8e-ae89-2057aa778894" d="M309,312.59v36.35H293.45V277.12h17.32L323,316.86V277.3h15.38v71.82H320.5L309,312.58Z"/><path class="b36fb338-fc7d-4e8e-ae89-2057aa778894" d="M346.48,277.12h16.27v72H346.48Z"/><path class="b36fb338-fc7d-4e8e-ae89-2057aa778894" d="M399.16,302.74h16.26V292.18c0-6.23-6-15.06-23.51-15.06S371.23,289.41,371.23,295v35.83c0,6.75,3,18.34,21.21,18.34s23.87-11.42,23.87-15.58V320.91h-17v10.56c0,2.7-2.63,5.19-5.66,5.19s-5.66-1.73-5.66-5.19V295c0-3.29,1.61-4.94,5.66-4.94a5.67,5.67,0,0,1,5.57,5.46c0,2.33.09,7.44-.09,7.27Z"/></svg>