<svg width="48" height="48" viewBox="0 0 48 48" fill="none" xmlns="http://www.w3.org/2000/svg"><path d="M24.0002 41.6048C33.6205 41.6048 41.4193 33.806 41.4193 24.1857C41.4193 14.5654 33.6205 6.7666 24.0002 6.7666C14.3799 6.7666 6.58105 14.5654 6.58105 24.1857C6.58105 33.806 14.3799 41.6048 24.0002 41.6048Z" fill="#C34B3B"></path><path d="M21.7509 16.9494C23.1182 16.9494 24.2265 15.8411 24.2265 14.4738C24.2265 13.1066 23.1182 11.9983 21.7509 11.9983C20.3837 11.9983 19.2754 13.1066 19.2754 14.4738C19.2754 15.8411 20.3837 16.9494 21.7509 16.9494Z" fill="white"></path><path d="M24.6259 18.6682C25.9932 18.6682 27.1015 17.5598 27.1015 16.1926C27.1015 14.8254 25.9932 13.717 24.6259 13.717C23.2587 13.717 22.1504 14.8254 22.1504 16.1926C22.1504 17.5598 23.2587 18.6682 24.6259 18.6682Z" fill="white"></path><path d="M24.8931 21.227C26.0524 21.227 26.9922 20.2872 26.9922 19.1279C26.9922 17.9686 26.0524 17.0288 24.8931 17.0288C23.7338 17.0288 22.7939 17.9686 22.7939 19.1279C22.7939 20.2872 23.7338 21.227 24.8931 21.227Z" fill="white"></path><path d="M20.7761 21.8199C22.0597 21.8199 23.1001 20.7794 23.1001 19.4959C23.1001 18.2124 22.0597 17.1719 20.7761 17.1719C19.4926 17.1719 18.4521 18.2124 18.4521 19.4959C18.4521 20.7794 19.4926 21.8199 20.7761 21.8199Z" fill="white"></path><path d="M22.6772 24.1115C24.0444 24.1115 25.1528 23.0032 25.1528 21.636C25.1528 20.2687 24.0444 19.1604 22.6772 19.1604C21.31 19.1604 20.2017 20.2687 20.2017 21.636C20.2017 23.0032 21.31 24.1115 22.6772 24.1115Z" fill="white"></path><path d="M24.5066 23.464C25.5849 23.464 26.4591 22.5898 26.4591 21.5115C26.4591 20.4332 25.5849 19.5591 24.5066 19.5591C23.4283 19.5591 22.5542 20.4332 22.5542 21.5115C22.5542 22.5898 23.4283 23.464 24.5066 23.464Z" fill="white"></path><path d="M21.8969 19.5195C23.2642 19.5195 24.3725 18.4111 24.3725 17.0439C24.3725 15.6767 23.2642 14.5684 21.8969 14.5684C20.5297 14.5684 19.4214 15.6767 19.4214 17.0439C19.4214 18.4111 20.5297 19.5195 21.8969 19.5195Z" fill="white"></path><path d="M19.7053 18.2979C20.7839 18.2979 21.6582 17.4235 21.6582 16.345C21.6582 15.2664 20.7839 14.3921 19.7053 14.3921C18.6268 14.3921 17.7524 15.2664 17.7524 16.345C17.7524 17.4235 18.6268 18.2979 19.7053 18.2979Z" fill="white"></path><path d="M22.36 22.8813C22.5307 23.328 22.8014 24.1049 22.8623 24.6902C22.8836 24.8951 23.0467 25.0449 23.2072 25.012L25.2769 24.5875C25.4116 24.56 25.5 24.4107 25.4832 24.2387C25.4325 23.724 25.2867 22.6595 24.9032 21.9155C24.8325 21.7782 24.6987 21.7107 24.5796 21.7498L22.5152 22.4262C22.3587 22.4773 22.2867 22.6902 22.3596 22.8818L22.36 22.8813Z" fill="white"></path><path d="M21.9634 14.397C21.9634 14.397 23.9514 16.3205 23.5083 22.2076" stroke="#732A22" stroke-width="0.444444" stroke-miterlimit="10" stroke-linecap="round"></path><path d="M25.668 15.1643C25.668 15.1643 25.5209 16.3261 23.876 16.5376" stroke="#732A22" stroke-width="0.4" stroke-miterlimit="10" stroke-linecap="round"></path><path d="M21.9657 16.4471C21.9657 16.4471 20.8893 17.3907 19.2568 16.2449" stroke="#732A22" stroke-width="0.4" stroke-miterlimit="10" stroke-linecap="round"></path><path d="M26.2522 18.9531C26.2522 18.9531 25.7713 19.9847 24.373 19.5913" stroke="#732A22" stroke-width="0.4" stroke-miterlimit="10" stroke-linecap="round"></path><path d="M22.2377 19.3745C22.2377 19.3745 21.64 20.107 20.0044 19.7518" stroke="#732A22" stroke-width="0.4" stroke-miterlimit="10" stroke-linecap="round"></path><path d="M21.1738 34.7924C24.1242 34.7924 26.516 32.4006 26.516 29.4501C26.516 26.4997 24.1242 24.1079 21.1738 24.1079C18.2233 24.1079 15.8315 26.4997 15.8315 29.4501C15.8315 32.4006 18.2233 34.7924 21.1738 34.7924Z" fill="#732A22"></path><path d="M18.4442 34.0423C18.4442 34.0423 12.2309 30.797 12.6206 25.0086C12.7886 22.5139 15.3637 20.8335 17.0131 22.713C17.0206 22.7215 17.1775 22.8641 17.2473 22.9223C17.4517 23.0926 17.57 23.2028 17.7575 23.3508C17.9873 23.5321 19.3913 24.2606 20.8717 24.117" fill="#732A22"></path><path d="M21.1894 34.7613C24.1398 34.7613 26.5316 32.3696 26.5316 29.4191C26.5316 26.4687 24.1398 24.0769 21.1894 24.0769C18.239 24.0769 15.8472 26.4687 15.8472 29.4191C15.8472 32.3696 18.239 34.7613 21.1894 34.7613Z" fill="white"></path><path d="M18.4588 34.0113C18.4588 34.0113 12.2455 30.766 12.6353 24.9776C12.8033 22.4829 15.3784 20.8024 17.0277 22.682C17.0353 22.6904 17.1922 22.8331 17.2619 22.8913C17.4664 23.0616 17.5846 23.1718 17.7722 23.3198C18.0019 23.5011 19.4059 24.2296 20.8864 24.086" fill="white"></path><path d="M22.3188 31.266C23.0326 31.266 23.6113 30.6874 23.6113 29.9736C23.6113 29.2598 23.0326 28.6812 22.3188 28.6812C21.605 28.6812 21.0264 29.2598 21.0264 29.9736C21.0264 30.6874 21.605 31.266 22.3188 31.266Z" fill="white"></path><path d="M30.1139 27.8753C30.1139 27.8753 26.801 23.713 27.0134 26.5161C27.0134 26.5161 24.8476 26.7286 27.2259 27.8753C27.2259 27.8753 25.3148 29.1495 29.7739 29.2766L30.1134 27.8753H30.1139Z" fill="#732A22"></path><path d="M29.3216 19.6119C30.3043 19.319 31.7554 19.1287 33.2843 19.7723C34.662 20.3523 35.7327 21.4776 36.3029 22.8594C36.4958 23.327 36.6634 23.8732 36.7425 24.4741C37.278 28.5416 32.8371 31.4047 29.318 29.2963C29.2674 29.2661 29.2163 29.2345 29.1647 29.2025L29.8016 27.5461C29.8016 27.5461 32.7994 27.7585 32.3514 25.295C32.3514 25.295 32.0523 23.9785 29.8225 23.9785C29.8225 23.9785 27.4114 23.8714 27.5207 21.8585C27.578 20.8056 28.3105 19.9123 29.3207 19.611L29.3216 19.6119Z" fill="white"></path><path d="M30.4077 23.5609C30.4077 23.5609 32.3908 22.9755 32.1282 20.2622" stroke="#732A22" stroke-width="0.4" stroke-miterlimit="10" stroke-linecap="round"></path><path d="M32.5156 24.6126C32.5156 24.6126 34.5445 25.013 35.569 22.4863" stroke="#732A22" stroke-width="0.4" stroke-miterlimit="10" stroke-linecap="round"></path><path d="M32.5605 26.803C32.5605 26.803 34.3352 27.8648 36.1521 25.8328" stroke="#732A22" stroke-width="0.4" stroke-miterlimit="10" stroke-linecap="round"></path><path d="M31.6611 27.4548C31.6611 27.4548 31.642 29.0024 33.5651 29.3193" stroke="#732A22" stroke-width="0.4" stroke-miterlimit="10" stroke-linecap="round"></path><path d="M30.4364 27.8645C30.4364 27.8645 30.0044 28.4738 30.6475 29.5525" stroke="#732A22" stroke-width="0.4" stroke-miterlimit="10" stroke-linecap="round"></path></svg>
