<svg width="48" height="48" viewBox="0 0 48 48" fill="none" xmlns="http://www.w3.org/2000/svg"><path d="M24.0002 41.6048C33.6205 41.6048 41.4193 33.806 41.4193 24.1857C41.4193 14.5654 33.6205 6.7666 24.0002 6.7666C14.3799 6.7666 6.58105 14.5654 6.58105 24.1857C6.58105 33.806 14.3799 41.6048 24.0002 41.6048Z" fill="#F4B740"></path><path d="M31.0314 32.8818C31.0314 32.8818 29.6488 40.0267 24.2412 37.8423L31.0314 32.8818Z" fill="white"></path><path d="M31.0314 32.8819C31.0314 32.8819 23.8047 32.0263 24.2412 37.8423L31.0314 32.8819Z" fill="#AA7E2F"></path><path d="M17.0171 34.6221C17.0171 34.6221 18.3998 41.767 23.8073 39.5825L17.0171 34.6221Z" fill="white"></path><path d="M17.0171 34.6223C17.0171 34.6223 24.2438 33.7668 23.8073 39.5828L17.0171 34.6223Z" fill="#AA7E2F"></path><path d="M31.0314 26.9502C31.0314 26.9502 29.6488 34.0951 24.2412 31.9106L31.0314 26.9502Z" fill="white"></path><path d="M31.0314 26.9502C31.0314 26.9502 23.8047 26.0947 24.2412 31.9107L31.0314 26.9502Z" fill="#AA7E2F"></path><path d="M17.0171 28.6907C17.0171 28.6907 18.3998 35.8356 23.8073 33.6511L17.0171 28.6907Z" fill="white"></path><path d="M17.0171 28.6907C17.0171 28.6907 24.2438 27.8351 23.8073 33.6511L17.0171 28.6907Z" fill="#AA7E2F"></path><path d="M31.0114 20.991C31.0114 20.991 29.1901 27.535 24.2212 25.9514L31.0114 20.991Z" fill="white"></path><path d="M31.0114 20.991C31.0114 20.991 24.2234 20.7359 24.2212 25.9515L31.0114 20.991Z" fill="#AA7E2F"></path><path d="M17.2617 22.4243C17.2617 22.4243 19.1942 28.8163 24.0519 27.3848L17.2617 22.4243Z" fill="white"></path><path d="M17.2617 22.4242C17.2617 22.4242 23.9386 22.3211 24.0519 27.3847L17.2617 22.4242Z" fill="#AA7E2F"></path><path d="M19.3877 17.5684C19.3877 17.5684 24.5139 18.3097 23.5548 22.2368L19.3877 17.5684Z" fill="white"></path><path d="M19.3877 17.5684C19.3877 17.5684 19.545 22.7457 23.5548 22.2368L19.3877 17.5684Z" fill="#AA7E2F"></path><path d="M28.0492 16.3804C28.0492 16.3804 28.2528 21.5559 24.2168 21.3275L28.0492 16.3804Z" fill="white"></path><path d="M28.0494 16.3804C28.0494 16.3804 22.9872 17.4764 24.217 21.3275L28.0494 16.3804Z" fill="#AA7E2F"></path><path d="M24.3699 20.244C24.3699 20.0395 24.2042 19.8738 23.9999 19.8738C23.7955 19.8738 23.6299 20.0395 23.6299 20.244V41.8493C23.6299 42.0538 23.7955 42.2196 23.9999 42.2196C24.2042 42.2196 24.3699 42.0538 24.3699 41.8493V20.244Z" fill="white"></path><path d="M24 12.9626C24 12.9626 27.3307 17.8724 24 20.7075V12.9626Z" fill="white"></path><path d="M23.9998 12.9626C23.9998 12.9626 20.6692 17.8724 23.9998 20.7075V12.9626Z" fill="#AA7E2F"></path><path d="M14.9653 31.2449L9.82084 35.3253C9.62046 35.4842 9.58685 35.7755 9.74579 35.9759C9.90473 36.1763 10.196 36.2099 10.3964 36.0509L15.5409 31.9705C15.7413 31.8116 15.7749 31.5203 15.6159 31.3199C15.457 31.1195 15.1657 31.0859 14.9653 31.2449Z" fill="white" stroke="white" stroke-width="0.444444" stroke-miterlimit="10"></path><path d="M37.7415 13.1318L31.3658 18.1888C31.1654 18.3477 31.1318 18.639 31.2907 18.8394C31.4497 19.0398 31.741 19.0734 31.9413 18.9144L38.3171 13.8575C38.5175 13.6985 38.5511 13.4072 38.3921 13.2068C38.2332 13.0064 37.9419 12.9728 37.7415 13.1318Z" fill="white" stroke="white" stroke-width="0.444444" stroke-miterlimit="10"></path></svg>
