<svg xmlns="http://www.w3.org/2000/svg" width="48" height="48" viewBox="0 0 48 48" fill="none"><path d="M24 41.6045C33.6196 41.6045 41.4178 33.8063 41.4178 24.1867C41.4178 14.5671 33.6196 6.76892 24 6.76892C14.3804 6.76892 6.58221 14.5671 6.58221 24.1867C6.58221 33.8063 14.3804 41.6045 24 41.6045Z" fill="#C27845"></path><path d="M30.3333 22.4933C29.3511 22.8799 28.2756 23.4977 27.1067 24.4266C27.1067 24.4266 23.8044 22.2488 20.4667 26.191C21.0089 24.9777 21.2711 23.9644 21.4044 23.3022C21.7911 21.4088 21.8044 19.2488 22.7289 17.6488C22.9422 17.2799 23.1422 17.0533 23.4311 16.9422C23.9778 16.7333 24.3822 17.0622 25.4 17.1199C25.64 17.1333 25.9111 17.1111 26.2444 17.0177C27.1822 16.7555 27.6844 16.1911 28.3467 16.4533C28.6933 16.5911 28.8933 16.8755 29.2844 16.8266C29.5956 16.7866 29.8089 16.5644 29.9156 16.4488C30.0089 16.3511 30.4089 15.9244 30.28 15.4355C30.2178 15.2044 30.0622 15.0533 29.9778 14.9866C30.1244 14.9199 30.2 14.8355 30.24 14.7822C30.3556 14.6222 30.48 14.2666 28.9067 11.7066C28.7333 11.4266 28.5733 11.1688 28.2444 11.0133C27.7422 10.7733 27.1911 10.9466 26.9378 11.0488C26.2889 11.2044 25.6 11.4044 24.8756 11.6533C24.16 11.8977 23.4978 12.1644 22.8889 12.4399C22.0044 12.8399 21.2133 13.4133 20.5778 14.1466C20.36 14.3999 20.1333 14.6755 19.9022 14.9866C19.1689 15.9688 18.8933 16.5999 18.44 17.3688C18.1733 17.8222 17.9378 18.1199 17.6711 18.4933C16.5289 20.0844 16.0089 20.3555 15.1333 21.4799C13.8267 23.1511 13.1644 24.8622 12.9111 25.5599C12.2578 27.3688 12.1111 27.8488 12.1111 27.8488C11.8311 28.4177 11.36 29.4133 11.1644 30.0977C11.1511 30.1466 11.1244 30.2266 11.1111 30.3377C11.0311 30.9822 11.3511 31.5199 11.44 31.6577C11.5556 31.8444 11.7067 32.0266 11.9956 32.271C12.7067 32.8666 13.4356 33.1422 13.72 33.2444C13.7467 33.2533 13.8444 33.2888 13.9644 33.3288C15.1556 33.7111 16.44 33.6844 16.4889 33.6844C17.9689 33.6533 20.2178 34.3822 21.4044 34.6222C23.1556 34.9777 25.9289 34.9644 30.3289 33.1644C34.9467 32.3199 36.3244 31.1555 36.8 30.471C36.8133 30.4488 36.8311 30.4311 36.8444 30.4088C39.8089 26.0311 35.2489 20.5466 30.3333 22.4933Z" fill="white"></path><path d="M30.84 30.8222C30.7333 30.8222 30.6356 30.7422 30.6178 30.6311C30.6 30.5066 30.68 30.3911 30.8045 30.3733C34.6445 29.76 34.9333 27.3022 34.9422 27.1955C34.9556 27.0711 35.0622 26.9822 35.1867 26.9911C35.3111 27.0044 35.4 27.1111 35.3911 27.2355C35.3822 27.3555 35.0756 30.1422 30.8756 30.8133C30.8622 30.8222 30.8533 30.8222 30.84 30.8222Z" fill="#593925"></path><path d="M28.1067 26.9333C28.04 26.9333 27.9778 26.9066 27.9333 26.8488C26.8178 25.4888 25.04 25.56 25.0222 25.56C24.8933 25.5644 24.7911 25.4711 24.7867 25.3466C24.7822 25.2222 24.8755 25.1155 25 25.1111C25.08 25.1066 27.0222 25.0311 28.28 26.5644C28.36 26.6622 28.3466 26.8044 28.2489 26.88C28.2089 26.9155 28.16 26.9333 28.1067 26.9333Z" fill="#593925"></path></svg>