<svg width="48" height="48" viewBox="0 0 48 48" fill="none" xmlns="http://www.w3.org/2000/svg"><path d="M24.0002 41.6048C33.6205 41.6048 41.4193 33.806 41.4193 24.1857C41.4193 14.5654 33.6205 6.7666 24.0002 6.7666C14.3799 6.7666 6.58105 14.5654 6.58105 24.1857C6.58105 33.806 14.3799 41.6048 24.0002 41.6048Z" fill="#6F9ACE"></path><path d="M21.1602 21.289C22.9123 21.289 24.3327 19.8686 24.3327 18.1165C24.3327 16.3644 22.9123 14.9441 21.1602 14.9441C19.4081 14.9441 17.9878 16.3644 17.9878 18.1165C17.9878 19.8686 19.4081 21.289 21.1602 21.289Z" fill="white"></path><path d="M22.9451 17.9124C24.3216 17.9124 25.4375 16.7965 25.4375 15.4199C25.4375 14.0434 24.3216 12.9275 22.9451 12.9275C21.5685 12.9275 20.4526 14.0434 20.4526 15.4199C20.4526 16.7965 21.5685 17.9124 22.9451 17.9124Z" fill="white"></path><path d="M26.073 17.9124C27.4496 17.9124 28.5655 16.7965 28.5655 15.4199C28.5655 14.0434 27.4496 12.9275 26.073 12.9275C24.6965 12.9275 23.5806 14.0434 23.5806 15.4199C23.5806 16.7965 24.6965 17.9124 26.073 17.9124Z" fill="white"></path><path d="M24.5934 21.2915C26.2522 21.2915 27.597 19.9468 27.597 18.288C27.597 16.6292 26.2522 15.2844 24.5934 15.2844C22.9346 15.2844 21.5898 16.6292 21.5898 18.288C21.5898 19.9468 22.9346 21.2915 24.5934 21.2915Z" fill="white"></path><path d="M27.7662 21.289C29.5183 21.289 30.9386 19.8686 30.9386 18.1165C30.9386 16.3644 29.5183 14.9441 27.7662 14.9441C26.0141 14.9441 24.5938 16.3644 24.5938 18.1165C24.5938 19.8686 26.0141 21.289 27.7662 21.289Z" fill="white"></path><path d="M21.9055 21.0425C22.3598 21.783 23.2473 23.6127 22.474 25.6403C22.3873 25.8679 22.5549 26.1119 22.7984 26.1119H26.0344C26.2691 26.1119 26.4358 25.8843 26.366 25.6603C26.0589 24.671 25.526 22.2927 26.9566 20.9372C27.1042 20.7972 27.1011 20.5607 26.9491 20.4256L25.71 19.3216C25.6122 19.2345 25.474 19.2096 25.3522 19.2572L22.0749 20.5363C21.8726 20.6154 21.7918 20.8576 21.9051 21.0425H21.9055Z" fill="white"></path><path d="M23.8239 14.6372C23.8239 14.6372 22.4261 14.1447 21.5981 15.8932" stroke="#26425E" stroke-width="0.355556" stroke-miterlimit="10" stroke-linecap="round"></path><path d="M29.338 18.3369C29.338 18.3369 29.1927 16.7471 27.1069 16.7156" stroke="#26425E" stroke-width="0.355556" stroke-miterlimit="10" stroke-linecap="round"></path><path d="M29.8304 22.2488C29.8304 22.2488 29.0882 23.2786 29.3264 25.1941" stroke="#26435E" stroke-width="0.533333" stroke-miterlimit="10" stroke-linecap="round"></path><path d="M34.8359 28.9093C35.2812 26.3067 34.1158 23.9357 32.2327 23.6135C30.3497 23.2912 28.4621 25.1399 28.0168 27.7424C27.5715 30.345 28.737 32.716 30.62 33.0383C32.5031 33.3605 34.3906 31.5119 34.8359 28.9093Z" fill="white"></path><path d="M28.056 33.0382C29.939 32.7159 31.1045 30.3449 30.6592 27.7423C30.2138 25.1398 28.3263 23.2911 26.4432 23.6134C24.5602 23.9356 23.3947 26.3066 23.84 28.9092C24.2854 31.5118 26.1729 33.3604 28.056 33.0382Z" fill="#26425E"></path><path d="M29.3419 24.8401L29.3384 32.4254L33.2006 29.661L29.3419 24.8401Z" fill="white"></path><path d="M18.2681 34.4857C20.7531 34.4857 22.7677 32.4712 22.7677 29.9861C22.7677 27.5011 20.7531 25.4866 18.2681 25.4866C15.7831 25.4866 13.7686 27.5011 13.7686 29.9861C13.7686 32.4712 15.7831 34.4857 18.2681 34.4857Z" fill="white"></path><path d="M18.2679 27.7743C20.0487 27.7743 21.4923 26.3307 21.4923 24.5499C21.4923 22.7691 20.0487 21.3254 18.2679 21.3254C16.4871 21.3254 15.0435 22.7691 15.0435 24.5499C15.0435 26.3307 16.4871 27.7743 18.2679 27.7743Z" fill="white"></path><path d="M21.4564 25.0325C21.4564 25.0325 21.2151 26.3983 22.1208 27.6623L19.3906 26.8L21.4564 25.0325Z" fill="white"></path><path d="M15.0795 25.0325C15.0795 25.0325 15.3208 26.3983 14.415 27.6623L17.1453 26.8L15.0795 25.0325Z" fill="white"></path><path d="M18.2682 32.2764C19.4459 32.2764 20.4006 31.3216 20.4006 30.1439C20.4006 28.9662 19.4459 28.0115 18.2682 28.0115C17.0905 28.0115 16.1357 28.9662 16.1357 30.1439C16.1357 31.3216 17.0905 32.2764 18.2682 32.2764Z" fill="#26425E"></path></svg>
